<svg width="32" height="32" viewBox="0 0 32 32" fill="none" xmlns="http://www.w3.org/2000/svg">
<path d="M20.7873 19.1595C20.9264 19.7504 21 20.3666 21 21C21 25.4183 17.4183 29 13 29V22.6004M20.7873 19.1595C25.7659 15.5215 29 9.63832 29 3C22.362 3.00028 16.4793 6.23448 12.8416 11.213M20.7873 19.1595C18.5092 20.8241 15.8658 22.0187 13 22.6004M12.8416 11.213C12.2504 11.0737 11.6338 11 11 11C6.58172 11 3 14.5817 3 19H9.40097M12.8416 11.213C11.1771 13.491 9.98268 16.1343 9.40097 19M13 22.6004C12.8621 22.6284 12.7237 22.655 12.5848 22.6801C11.3756 21.7213 10.2799 20.6256 9.32106 19.4164C9.34626 19.2771 9.3729 19.1383 9.40097 19M6.41588 22.1877C4.94951 23.2816 4 25.0299 4 27C4 27.3158 4.0244 27.6259 4.07142 27.9286C4.37406 27.9756 4.68418 28 5 28C6.9701 28 8.71843 27.0505 9.81233 25.5841M22 12C22 13.1046 21.1046 14 20 14C18.8954 14 18 13.1046 18 12C18 10.8954 18.8954 10 20 10C21.1046 10 22 10.8954 22 12Z" stroke="#F54E00" stroke-width="1.5" stroke-linecap="round" stroke-linejoin="round"/>
</svg>
