<svg width="32" height="32" viewBox="0 0 32 32" fill="none" xmlns="http://www.w3.org/2000/svg">
<path d="M13.7901 5.2534C13.9107 4.53012 14.5365 4 15.2697 4H16.7283C17.4616 4 18.0874 4.53012 18.2079 5.2534L18.4065 6.44515C18.5008 7.01084 18.9181 7.46451 19.4477 7.68442C19.9776 7.90443 20.5861 7.87505 21.053 7.54156L22.0364 6.83911C22.6331 6.41292 23.4504 6.48056 23.9689 6.99905L25.0003 8.03045C25.5188 8.54894 25.5864 9.36629 25.1602 9.96297L24.4575 10.9468C24.1242 11.4135 24.0948 12.0218 24.3147 12.5515C24.5345 13.081 24.9881 13.4982 25.5536 13.5924L26.7456 13.7911C27.4689 13.9116 27.999 14.5374 27.999 15.2707V16.7293C27.999 17.4626 27.4689 18.0884 26.7456 18.2089L25.5539 18.4075C24.9882 18.5018 24.5345 18.919 24.3146 19.4487C24.0946 19.9786 24.124 20.587 24.4575 21.0539L25.1598 22.0371C25.586 22.6338 25.5183 23.4511 24.9998 23.9696L23.9684 25.001C23.45 25.5195 22.6326 25.5872 22.0359 25.161L21.0525 24.4585C20.5857 24.1251 19.9774 24.0957 19.4476 24.3156C18.918 24.5355 18.5008 24.9891 18.4066 25.5547L18.2079 26.7466C18.0874 27.4699 17.4616 28 16.7283 28H15.2697C14.5365 28 13.9107 27.4699 13.7901 26.7466L13.5915 25.5548C13.4972 24.9891 13.08 24.5355 12.5503 24.3156C12.0205 24.0956 11.412 24.125 10.9452 24.4584L9.96166 25.1609C9.36499 25.5871 8.54764 25.5195 8.02914 25.001L6.99775 23.9696C6.47925 23.4511 6.41161 22.6338 6.83781 22.0371L7.54051 21.0533C7.8739 20.5865 7.9033 19.9783 7.68337 19.4485C7.46352 18.919 7.00995 18.5018 6.44438 18.4076L5.25242 18.2089C4.52914 18.0884 3.99902 17.4626 3.99902 16.7293V15.2707C3.99902 14.5374 4.52914 13.9116 5.25242 13.7911L6.44417 13.5925C7.00986 13.4982 7.46354 13.081 7.68345 12.5513C7.90346 12.0214 7.87408 11.4129 7.54059 10.946L6.83833 9.96288C6.41213 9.36621 6.47978 8.54886 6.99827 8.03037L8.02967 6.99897C8.54816 6.48047 9.36551 6.41283 9.96219 6.83903L10.9456 7.5415C11.4124 7.8749 12.0207 7.9043 12.5505 7.68435C13.0801 7.46449 13.4972 7.01092 13.5915 6.44533L13.7901 5.2534Z" stroke="#F54E00" stroke-width="1.5" stroke-linecap="round" stroke-linejoin="round"/>
<path d="M20 16C20 18.2092 18.2091 20 16 20C13.7908 20 12 18.2092 12 16C12 13.7909 13.7908 12 16 12C18.2091 12 20 13.7909 20 16Z" stroke="#F54E00" stroke-width="1.5" stroke-linecap="round" stroke-linejoin="round"/>
</svg>
