<svg width="32" height="32" viewBox="0 0 32 32" fill="none" xmlns="http://www.w3.org/2000/svg">
<path d="M16 1C9.92487 1 5 5.92487 5 12C5 16.0677 7.20842 19.6184 10.4869 21.5206C11.4008 22.0509 11.9731 22.8645 11.999 23.6834C12.0133 24.1351 12.3288 24.521 12.7685 24.625C13.237 24.7357 13.7145 24.8229 14.1995 24.8852C14.6309 24.9406 15.0002 24.595 15.0002 24.16V17.9453C14.5745 17.8982 14.1574 17.8213 13.751 17.7167C13.2161 17.5791 12.8941 17.0339 13.0318 16.499C13.1695 15.9642 13.7146 15.6422 14.2495 15.7799C14.8079 15.9236 15.3943 16.0002 16.0002 16.0002C16.6061 16.0002 17.1926 15.9236 17.751 15.7799C18.2858 15.6422 18.831 15.9642 18.9687 16.499C19.1063 17.0339 18.7844 17.5791 18.2495 17.7167C17.8431 17.8213 17.4259 17.8982 17.0002 17.9453V24.1599C17.0002 24.5949 17.3696 24.9406 17.8011 24.8851C18.2859 24.8228 18.7631 24.7357 19.2315 24.625C19.6713 24.521 19.9867 24.1351 20.001 23.6834C20.0269 22.8645 20.5992 22.0509 21.5131 21.5206C24.7916 19.6184 27 16.0677 27 12C27 5.92487 22.0751 1 16 1Z" fill="#F54E00"/>
<path fill-rule="evenodd" clip-rule="evenodd" d="M12.0175 26.5329C12.1204 25.9903 12.6438 25.6338 13.1864 25.7368C14.097 25.9095 15.0375 26 16 26C16.9625 26 17.903 25.9095 18.8136 25.7368C19.3562 25.6338 19.8796 25.9903 19.9825 26.5329C20.0854 27.0755 19.729 27.5988 19.1864 27.7017C18.1535 27.8977 17.0882 28 16 28C14.9118 28 13.8465 27.8977 12.8136 27.7017C12.271 27.5988 11.9146 27.0755 12.0175 26.5329Z" fill="#F54E00"/>
<path fill-rule="evenodd" clip-rule="evenodd" d="M13.0054 29.792C13.0629 29.2427 13.5548 28.844 14.104 28.9014C14.7268 28.9666 15.3593 29 16 29C16.6407 29 17.2732 28.9666 17.896 28.9014C18.4452 28.844 18.9371 29.2427 18.9946 29.792C19.052 30.3412 18.6533 30.8331 18.104 30.8906C17.4123 30.9629 16.7103 31 16 31C15.2897 31 14.5877 30.9629 13.896 30.8906C13.3467 30.8331 12.948 30.3412 13.0054 29.792Z" fill="#F54E00"/>
</svg>
