<svg width="32" height="32" viewBox="0 0 32 32" fill="none" xmlns="http://www.w3.org/2000/svg">
<path d="M5.6791 13.5289C5.31584 16.3076 5.09518 19.1311 5.0247 21.9919C8.88601 23.6041 12.5586 25.578 16 27.8714C19.4414 25.578 23.114 23.6041 26.9753 21.9919C26.9048 19.1311 26.6842 16.3076 26.3209 13.5289M5.6791 13.5289C4.51149 13.1364 3.32973 12.7748 2.13477 12.4449C6.46195 9.41182 11.1032 6.79626 16.0001 4.65674C20.8969 6.79626 25.5382 9.41183 29.8654 12.4449C28.6704 12.7748 27.4886 13.1364 26.3209 13.5289M5.6791 13.5289C9.26209 14.7332 12.7117 16.2278 16.0001 17.9848C19.2884 16.2279 22.738 14.7332 26.3209 13.5289M9 20C9.55228 20 10 19.5523 10 19C10 18.4477 9.55228 18 9 18C8.44772 18 8 18.4477 8 19C8 19.5523 8.44772 20 9 20ZM9 20V15.0993C11.2553 13.698 13.5915 12.4146 16 11.2577M6.65685 26.6568C8.21895 25.0947 9 23.0474 9 21V19" stroke="#F54E00" stroke-width="1.5" stroke-linecap="round" stroke-linejoin="round"/>
</svg>
