<svg width="32" height="32" viewBox="0 0 32 32" fill="none" xmlns="http://www.w3.org/2000/svg">
<path fill-rule="evenodd" clip-rule="evenodd" d="M7.51472 6.10051C7.90524 6.49103 7.90524 7.1242 7.51472 7.51472C2.82843 12.201 2.82843 19.799 7.51472 24.4853C7.90524 24.8758 7.90524 25.509 7.51472 25.8995C7.12419 26.29 6.49103 26.29 6.10051 25.8995C0.633166 20.4322 0.633164 11.5679 6.10051 6.10051C6.49103 5.70999 7.12419 5.70999 7.51472 6.10051ZM24.4853 6.10051C24.8758 5.70999 25.509 5.70999 25.8995 6.10051C31.3668 11.5679 31.3668 20.4322 25.8995 25.8995C25.509 26.29 24.8758 26.29 24.4853 25.8995C24.0948 25.509 24.0948 24.8758 24.4853 24.4853C29.1716 19.799 29.1716 12.201 24.4853 7.51472C24.0948 7.1242 24.0948 6.49103 24.4853 6.10051ZM10.3431 8.92894C10.7337 9.31946 10.7337 9.95263 10.3431 10.3432C7.21895 13.4673 7.21895 18.5327 10.3431 21.6569C10.7337 22.0474 10.7337 22.6805 10.3431 23.0711C9.95262 23.4616 9.31946 23.4616 8.92893 23.0711C5.02369 19.1658 5.02369 12.8342 8.92893 8.92894C9.31946 8.53841 9.95262 8.53841 10.3431 8.92894ZM21.6569 8.92894C22.0474 8.53841 22.6805 8.53841 23.0711 8.92894C26.9763 12.8342 26.9763 19.1658 23.0711 23.0711C22.6805 23.4616 22.0474 23.4616 21.6569 23.0711C21.2663 22.6805 21.2663 22.0474 21.6569 21.6569C24.781 18.5327 24.781 13.4673 21.6569 10.3432C21.2663 9.95263 21.2663 9.31946 21.6569 8.92894ZM13.1716 11.7574C13.5621 12.1479 13.5621 12.7811 13.1716 13.1716C11.6095 14.7337 11.6095 17.2663 13.1716 18.8284C13.5621 19.219 13.5621 19.8521 13.1716 20.2426C12.781 20.6332 12.1479 20.6332 11.7574 20.2426C9.41421 17.8995 9.41421 14.1005 11.7574 11.7574C12.1479 11.3668 12.781 11.3668 13.1716 11.7574ZM18.8284 11.7574C19.219 11.3668 19.8521 11.3668 20.2426 11.7574C22.5858 14.1005 22.5858 17.8995 20.2426 20.2426C19.8521 20.6332 19.219 20.6332 18.8284 20.2426C18.4379 19.8521 18.4379 19.219 18.8284 18.8284C20.3905 17.2663 20.3905 14.7337 18.8284 13.1716C18.4379 12.7811 18.4379 12.1479 18.8284 11.7574ZM14.5 16C14.5 15.1716 15.1716 14.5 16 14.5C16.8284 14.5 17.5 15.1716 17.5 16C17.5 16.8284 16.8284 17.5 16 17.5C15.1716 17.5 14.5 16.8284 14.5 16Z" fill="#F54E00"/>
</svg>
