<svg width="135" height="23" viewBox="0 0 135 23" fill="none" xmlns="http://www.w3.org/2000/svg">
<path fill-rule="evenodd" clip-rule="evenodd" d="M36.0756 0L24.5644 22.5033H13.752L18.5695 13.177H18.3533C14.379 18.3362 8.44913 21.7326 0 22.5033V13.3061C0 13.3061 5.40511 12.9868 8.58262 9.64612H0V0.000177499H9.64594V7.93383L9.86244 7.93294L13.8042 0.000177499H21.0991V7.88352L21.3155 7.88317L25.4051 0H36.0756Z" fill="#171A1F"/>
<path d="M98.8477 20.0195H101.954V2.18782H98.8477V20.0195Z" fill="#171A1F"/>
<path fill-rule="evenodd" clip-rule="evenodd" d="M81.7213 19.8374C82.3964 20.1181 83.083 20.2584 83.781 20.2584C84.934 20.2584 85.9658 19.9778 86.8762 19.4163C87.7865 18.855 88.4921 18.0812 88.9928 17.095C89.4935 16.1012 89.7437 14.9745 89.7437 13.7152C89.7437 12.4559 89.4858 11.3294 88.97 10.3356C88.4541 9.34178 87.7372 8.57177 86.8192 8.02555C85.9013 7.47175 84.8581 7.19865 83.6898 7.20623C82.9465 7.20623 82.2334 7.35037 81.5505 7.63865C80.8678 7.92693 80.2988 8.33659 79.8437 8.86763C79.8085 8.90807 79.7744 8.9489 79.7413 8.99014V2.19927H76.6233V20.0195H79.7185L79.7123 18.3548C79.7923 18.4529 79.8779 18.5488 79.9688 18.6426C80.4619 19.1509 81.0461 19.5491 81.7213 19.8374ZM84.9075 16.9585C84.3992 17.2695 83.8189 17.425 83.1664 17.425C82.5215 17.425 81.9298 17.2656 81.3913 16.9471C80.8526 16.6208 80.424 16.1771 80.1053 15.6156C79.7943 15.0543 79.6387 14.417 79.6387 13.7039C79.6312 12.9907 79.7829 12.3535 80.0939 11.7922C80.4126 11.2232 80.8412 10.7832 81.3799 10.4721C81.9185 10.1535 82.514 9.99799 83.1664 10.0056C83.8189 9.99799 84.3992 10.1497 84.9075 10.4608C85.4234 10.7642 85.8178 11.2004 86.091 11.7694C86.3716 12.3308 86.512 12.9756 86.512 13.7039C86.512 14.4322 86.3716 15.0771 86.091 15.6384C85.8178 16.1998 85.4234 16.6398 84.9075 16.9585Z" fill="#171A1F"/>
<path d="M40.5761 3.26892H44.1265L47.3025 14.8676L50.6811 3.26892H53.6398L57.3039 14.6348L60.3536 3.26892H63.6081L58.806 20.0195H55.745L52.0189 8.91585L48.5986 20.0195H45.5034L40.5761 3.26892Z" fill="#171A1F"/>
<path fill-rule="evenodd" clip-rule="evenodd" d="M68.8515 20.3153C67.6148 20.3229 66.4996 20.0497 65.5059 19.496C64.5196 18.9346 63.7421 18.157 63.173 17.1632C62.6117 16.1694 62.331 15.0352 62.331 13.7607C62.331 12.5241 62.6193 11.4052 63.1959 10.4038C63.7724 9.40241 64.5537 8.62102 65.54 8.05964C66.5263 7.49825 67.6262 7.21756 68.84 7.21756C70.2056 7.21756 71.4004 7.52101 72.4245 8.12791C73.4563 8.73481 74.2263 9.59586 74.7346 10.711C75.2504 11.8186 75.4363 13.0893 75.2922 14.5232H65.5449C65.5721 15.0944 65.7146 15.6141 65.9724 16.0822C66.2607 16.598 66.6628 17 67.1786 17.2883C67.6946 17.5766 68.271 17.7208 68.9084 17.7208C69.3938 17.7131 69.8453 17.6298 70.2624 17.4705C70.6798 17.3036 71.0324 17.0798 71.3207 16.799C71.6166 16.5183 71.8253 16.1998 71.9467 15.8432H75.2012C75.0039 16.7156 74.6095 17.4932 74.0178 18.176C73.4259 18.8512 72.6826 19.3784 71.7873 19.7577C70.8922 20.137 69.9135 20.3229 68.8515 20.3153ZM65.9838 11.3938C65.802 11.7108 65.676 12.0522 65.6059 12.418H72.0672C72.0203 11.9559 71.8777 11.5349 71.6394 11.1548C71.3662 10.7073 70.9946 10.3621 70.5242 10.1193C70.0539 9.86897 69.5228 9.7438 68.9311 9.7438C68.3014 9.7438 67.7287 9.88793 67.2127 10.1762C66.6969 10.4645 66.2872 10.8704 65.9838 11.3938Z" fill="#171A1F"/>
<path d="M92.0314 7.47931C92.0314 6.46275 92.2627 5.55998 92.7255 4.771C93.1882 3.97444 93.8369 3.35615 94.6714 2.91615C95.5134 2.46856 96.4959 2.23717 97.6186 2.22201V4.98721C97.0952 4.9948 96.6476 5.1048 96.2759 5.31722C95.9117 5.52205 95.6311 5.82171 95.4338 6.21619C95.2523 6.57937 95.1542 7.00041 95.1399 7.47931H97.5504V10.108H95.138V20.0195H92.0314V10.108H90.0286V7.47931H92.0314Z" fill="#171A1F"/>
<path fill-rule="evenodd" clip-rule="evenodd" d="M109.851 20.2925C108.584 20.2925 107.45 20.0156 106.449 19.4618C105.455 18.9004 104.673 18.1267 104.105 17.1404C103.543 16.1466 103.262 15.0201 103.262 13.7606C103.262 12.4938 103.543 11.3634 104.105 10.3696C104.673 9.36821 105.455 8.59062 106.449 8.03683C107.45 7.48302 108.584 7.20612 109.851 7.20612C111.126 7.20612 112.264 7.48302 113.265 8.03683C114.274 8.59062 115.059 9.36442 115.62 10.3582C116.182 11.352 116.466 12.4862 116.474 13.7606C116.466 15.0201 116.182 16.1466 115.62 17.1404C115.067 18.1267 114.285 18.9004 113.276 19.4618C112.267 20.0156 111.126 20.2925 109.851 20.2925ZM109.851 17.4363C110.519 17.4363 111.11 17.2845 111.626 16.9811C112.142 16.6701 112.54 16.2376 112.821 15.6838C113.102 15.1225 113.242 14.4814 113.242 13.7606C113.242 13.0324 113.102 12.3875 112.821 11.8262C112.54 11.2648 112.142 10.8324 111.626 10.5289C111.11 10.2179 110.519 10.0624 109.851 10.0624C109.191 10.0624 108.603 10.2179 108.087 10.5289C107.579 10.8324 107.184 11.2648 106.904 11.8262C106.623 12.3875 106.487 13.0324 106.494 13.7606C106.494 14.4814 106.635 15.1225 106.915 15.6838C107.203 16.2376 107.598 16.6701 108.099 16.9811C108.607 17.2845 109.191 17.4363 109.851 17.4363Z" fill="#171A1F"/>
<path d="M119.831 7.47929H116.372L120.115 20.0195H123.142L125.605 12.01L128.263 20.0195H131.244L135 7.47929H131.871L129.74 15.2848L127.386 7.47929H124.36L122.017 15.4567L119.831 7.47929Z" fill="#171A1F"/>
</svg>
