<svg width="104" height="554" viewBox="0 0 104 554" fill="none" xmlns="http://www.w3.org/2000/svg">
<g clip-path="url(#clip0_7_1153)">
<mask id="mask0_7_1153" style="mask-type:luminance" maskUnits="userSpaceOnUse" x="-88" y="-135" width="192" height="689">
<path d="M-72 -135H88C96.8366 -135 104 -127.837 104 -119V538C104 546.837 96.8366 554 88 554H-72C-80.8366 554 -88 546.837 -88 538V-119C-88 -127.837 -80.8366 -135 -72 -135Z" fill="white"/>
</mask>
<g mask="url(#mask0_7_1153)">
<path d="M-72 -135H88C96.8366 -135 104 -127.837 104 -119V538C104 546.837 96.8366 554 88 554H-72C-80.8366 554 -88 546.837 -88 538V-119C-88 -127.837 -80.8366 -135 -72 -135Z" fill="white"/>
<path d="M-88 -77.9149L104 -270.516M-88 -84.5184L104 -277.12M-88 -91.1218L104 -283.723M-88 -97.7253L104 -290.327M-88 -104.329L104 -296.93M-88 -110.932L104 -303.534M-88 -117.536L104 -310.137M-88 -124.139L104 -316.741M-88 -130.743L104 -323.344M-88 -137.346L104 -329.948M-88 -143.95L104 -336.551M-88 -150.553L104 -343.155M-88 -157.157L104 -349.758M-88 -163.76L104 -356.362M-88 -170.364L104 -362.965M-88 -176.967L104 -369.569M-88 -183.571L104 -376.172M-88 -190.174L104 -382.776M-88 -196.777L104 -389.379M-88 -203.381L104 -395.983M-88 -209.984L104 -402.586M-88 -216.588L104 -409.19M-88 -223.191L104 -415.793M-88 -229.795L104 -422.397M-88 -236.398L104 -429M-88 -71.3114L104 -263.913M-88 -64.7079L104 -257.309M-88 -58.1044L104 -250.706M-88 -51.501L104 -244.103M-88 -44.8975L104 -237.499M-88 -38.294L104 -230.896M-88 -31.691L104 -224.292M-88 -25.087L104 -217.689M-88 -18.484L104 -211.085M-88 -11.88L104 -204.482M-88 -5.27698L104 -197.878M-88 1.327L104 -191.275M-88 7.92999L104 -184.671M-88 14.534L104 -178.068M-88 21.137L104 -171.464M-88 27.741L104 -164.861M-88 34.344L104 -158.257M-88 40.948L104 -151.654M-88 47.551L104 -145.05M-88 54.155L104 -138.447M-88 60.758L104 -131.843M-88 67.362L104 -125.24M-88 73.965L104 -118.636M-88 80.569L104 -112.033M-88 87.172L104 -105.429M-88 93.776L104 -98.8259M-88 100.379L104 -92.2224M-88 106.983L104 -85.619M-88 113.586L104 -79.0155M-88 120.19L104 -72.412M-88 126.793L104 -65.8085M-88 133.397L104 -59.205M-88 140L104 -52.6016" stroke="#F0F0F0"/>
<path d="M-88 305.085L104 112.484M-88 298.482L104 105.88M-88 291.878L104 99.277M-88 285.275L104 92.673M-88 278.671L104 86.07M-88 272.068L104 79.466M-88 265.464L104 72.863M-88 258.861L104 66.259M-88 252.257L104 59.656M-88 245.654L104 53.052M-88 239.05L104 46.449M-88 232.447L104 39.845M-88 225.843L104 33.242M-88 219.24L104 26.638M-88 212.636L104 20.035M-88 206.033L104 13.431M-88 199.429L104 6.828M-88 192.826L104 0.223999M-88 186.222L104 -6.379M-88 179.619L104 -12.983M-88 173.015L104 -19.586M-88 166.412L104 -26.19M-88 159.809L104 -32.793M-88 153.205L104 -39.3965M-88 146.602L104 -46M-88 311.689L104 119.087M-88 318.292L104 125.691M-88 324.896L104 132.294M-88 331.499L104 138.897M-88 338.103L104 145.501M-88 344.706L104 152.104M-88 351.309L104 158.708M-88 357.913L104 165.311M-88 364.516L104 171.915M-88 371.12L104 178.518M-88 377.723L104 185.122M-88 384.327L104 191.725M-88 390.93L104 198.329M-88 397.534L104 204.932M-88 404.137L104 211.536M-88 410.741L104 218.139M-88 417.344L104 224.743M-88 423.948L104 231.346M-88 430.551L104 237.95M-88 437.155L104 244.553M-88 443.758L104 251.157M-88 450.362L104 257.76M-88 456.965L104 264.364M-88 463.569L104 270.967M-88 470.172L104 277.571M-88 476.776L104 284.174M-88 483.379L104 290.778M-88 489.983L104 297.381M-88 496.586L104 303.985M-88 503.19L104 310.588M-88 509.793L104 317.191M-88 516.397L104 323.795M-88 523L104 330.398" stroke="#F0F0F0"/>
<path d="M-88 688.085L104 495.484M-88 681.482L104 488.88M-88 674.878L104 482.277M-88 668.275L104 475.673M-88 661.671L104 469.07M-88 655.068L104 462.466M-88 648.464L104 455.863M-88 641.861L104 449.259M-88 635.257L104 442.656M-88 628.654L104 436.052M-88 622.05L104 429.449M-88 615.447L104 422.845M-88 608.843L104 416.242M-88 602.24L104 409.638M-88 595.636L104 403.035M-88 589.033L104 396.431M-88 582.429L104 389.828M-88 575.826L104 383.224M-88 569.222L104 376.621M-88 562.619L104 370.017M-88 556.015L104 363.414M-88 549.412L104 356.81M-88 542.809L104 350.207M-88 536.205L104 343.603M-88 529.602L104 337M-88 694.689L104 502.087M-88 701.292L104 508.691M-88 707.896L104 515.294M-88 714.499L104 521.897M-88 721.103L104 528.501M-88 727.706L104 535.104M-88 734.309L104 541.708M-88 740.913L104 548.311M-88 747.516L104 554.915M-88 754.12L104 561.518M-88 760.723L104 568.122M-88 767.327L104 574.725M-88 773.93L104 581.329M-88 780.534L104 587.932M-88 787.137L104 594.536M-88 793.741L104 601.139M-88 800.344L104 607.743M-88 806.948L104 614.346M-88 813.551L104 620.95M-88 820.155L104 627.553M-88 826.758L104 634.157M-88 833.362L104 640.76M-88 839.965L104 647.364M-88 846.569L104 653.967M-88 853.172L104 660.571M-88 859.776L104 667.174M-88 866.38L104 673.778M-88 872.98L104 680.381M-88 879.59L104 686.985M-88 886.19L104 693.588M-88 892.79L104 700.191M-88 899.4L104 706.795M-88 906L104 713.398" stroke="#F0F0F0"/>
</g>
<path d="M-72 -134.5H88C96.5604 -134.5 103.5 -127.56 103.5 -119V538C103.5 546.56 96.5604 553.5 88 553.5H-72C-80.5604 553.5 -87.5 546.56 -87.5 538V-119C-87.5 -127.56 -80.5604 -134.5 -72 -134.5Z" stroke="#F0F0F0"/>
</g>
<defs>
<clipPath id="clip0_7_1153">
<rect width="104" height="554" fill="white" transform="matrix(-1 0 0 1 104 0)"/>
</clipPath>
</defs>
</svg>
