<svg width="18" height="11" viewBox="0 0 18 11" fill="none" xmlns="http://www.w3.org/2000/svg">
<path d="M13.6486 0C14.9777 0 16.032 0.402558 16.8116 1.20767C17.6039 2.01279 18.0001 3.131 18.0001 4.56232V10.8115H14.7413V5.00322C14.7413 4.31312 14.556 3.78276 14.1854 3.41216C13.8275 3.02877 13.3291 2.83707 12.6901 2.83707C12.0512 2.83707 11.5464 3.02877 11.1758 3.41216C10.8179 3.78276 10.639 4.31312 10.639 5.00322V10.8115H7.38022V5.00322C7.38022 4.31312 7.19492 3.78276 6.82431 3.41216C6.46648 3.02877 5.96808 2.83707 5.3291 2.83707C4.69012 2.83707 4.18532 3.02877 3.81471 3.41216C3.45688 3.78276 3.27797 4.31312 3.27797 5.00322V10.8115H0V0.115016H3.27797V1.45688C3.61024 1.00959 4.04475 0.65815 4.58149 0.402557C5.11823 0.134186 5.72526 0 6.40258 0C7.2077 0 7.92336 0.172525 8.54956 0.517575C9.18854 0.862624 9.68694 1.35464 10.0448 1.99362C10.4154 1.40576 10.9202 0.926521 11.5592 0.555913C12.1981 0.185304 12.8946 0 13.6486 0Z" fill="white"/>
</svg>
