<svg width="27" height="25" viewBox="0 0 27 25" fill="none" xmlns="http://www.w3.org/2000/svg">
<path fill-rule="evenodd" clip-rule="evenodd" d="M3.48507 9.76122C4.96709 4.23026 10.6522 0.947946 16.1832 2.42996C18.0093 2.91927 19.5877 3.86509 20.8317 5.11138L23.4625 7.74217H19.0613C18.4887 7.74217 18.0245 8.20636 18.0245 8.77897C18.0245 9.35158 18.4887 9.81577 19.0613 9.81577H25.9631C26.2381 9.81577 26.5018 9.70651 26.6963 9.51204C26.8907 9.31757 26.9999 9.05382 26.9999 8.77882V1.87722C26.9999 1.30461 26.5357 0.840419 25.9631 0.840419C25.3905 0.840419 24.9263 1.30461 24.9263 1.87722V6.27346L22.2993 3.6465C20.8047 2.14925 18.9074 1.01316 16.7199 0.427024C10.0827 -1.3514 3.26056 2.58739 1.48214 9.22454C1.33393 9.77763 1.66217 10.3461 2.21526 10.4943C2.76836 10.6425 3.33687 10.3143 3.48507 9.76122ZM24.7843 14.3949C24.2312 14.2467 23.6626 14.575 23.5144 15.1281C22.0324 20.659 16.3473 23.9414 10.8163 22.4593C8.99022 21.97 7.41181 21.0242 6.16786 19.778L3.53869 17.1471H7.9386C8.51121 17.1471 8.9754 16.6829 8.9754 16.1103C8.9754 15.5377 8.51121 15.0735 7.9386 15.0735L1.0368 15.0735C0.46419 15.0735 0 15.5377 0 16.1103V23.0121C0 23.5847 0.46419 24.0489 1.0368 24.0489C1.6094 24.0489 2.07359 23.5847 2.07359 23.0121V18.6145L4.70024 21.2428C6.19488 22.7403 8.09197 23.8761 10.2796 24.4623C16.9168 26.2407 23.739 22.3019 25.5174 15.6648C25.6656 15.1117 25.3374 14.5432 24.7843 14.3949Z" fill="#F54E00"/>
</svg>
