<svg width="104" height="554" viewBox="0 0 104 554" fill="none" xmlns="http://www.w3.org/2000/svg">
<g clip-path="url(#clip0_7_1142)">
<mask id="mask0_7_1142" style="mask-type:luminance" maskUnits="userSpaceOnUse" x="0" y="-135" width="192" height="689">
<path d="M176 -135H16C7.16344 -135 0 -127.837 0 -119V538C0 546.837 7.16344 554 16 554H176C184.837 554 192 546.837 192 538V-119C192 -127.837 184.837 -135 176 -135Z" fill="white"/>
</mask>
<g mask="url(#mask0_7_1142)">
<path d="M176 -135H16C7.16344 -135 0 -127.837 0 -119V538C0 546.837 7.16344 554 16 554H176C184.837 554 192 546.837 192 538V-119C192 -127.837 184.837 -135 176 -135Z" fill="white"/>
<path d="M192 -77.9149L1.90507e-05 -270.516M192 -84.5184L1.9628e-05 -277.12M192 -91.1218L2.02053e-05 -283.723M192 -97.7253L2.07826e-05 -290.327M192 -104.329L2.13599e-05 -296.93M192 -110.932L2.19372e-05 -303.534M192 -117.536L2.25145e-05 -310.137M192 -124.139L2.30918e-05 -316.741M192 -130.743L2.36691e-05 -323.344M192 -137.346L2.42464e-05 -329.948M192 -143.95L2.48237e-05 -336.551M192 -150.553L2.5401e-05 -343.155M192 -157.157L2.59783e-05 -349.758M192 -163.76L2.65556e-05 -356.362M192 -170.364L2.71329e-05 -362.965M192 -176.967L2.77102e-05 -369.569M192 -183.571L2.82875e-05 -376.172M192 -190.174L2.88648e-05 -382.776M192 -196.777L2.9442e-05 -389.379M192 -203.381L3.00193e-05 -395.983M192 -209.984L3.05966e-05 -402.586M192 -216.588L3.11739e-05 -409.19M192 -223.191L3.17512e-05 -415.793M192 -229.795L3.23285e-05 -422.397M192 -236.398L3.29058e-05 -429M192 -71.3114L1.84734e-05 -263.913M192 -64.7079L1.78962e-05 -257.309M192 -58.1044L1.73189e-05 -250.706M192 -51.501L1.67416e-05 -244.103M192 -44.8975L1.61643e-05 -237.499M192 -38.294L1.5587e-05 -230.896M192 -31.691L1.50097e-05 -224.292M192 -25.087L1.44324e-05 -217.689M192 -18.484L1.38551e-05 -211.085M192 -11.88L1.32778e-05 -204.482M192 -5.27698L1.27005e-05 -197.878M192 1.327L1.21232e-05 -191.275M192 7.92999L1.15459e-05 -184.671M192 14.534L1.09686e-05 -178.068M192 21.137L1.03913e-05 -171.464M192 27.741L9.81398e-06 -164.861M192 34.344L9.23668e-06 -158.257M192 40.948L8.65938e-06 -151.654M192 47.551L8.08208e-06 -145.05M192 54.155L7.50478e-06 -138.447M192 60.758L6.92758e-06 -131.843M192 67.362L6.35028e-06 -125.24M192 73.965L5.77298e-06 -118.636M192 80.569L5.19568e-06 -112.033M192 87.172L4.61838e-06 -105.429M192 93.776L4.04108e-06 -98.8259M192 100.379L3.46378e-06 -92.2224M192 106.983L2.88648e-06 -85.619M192 113.586L2.30918e-06 -79.0155M192 120.19L1.73188e-06 -72.412M192 126.793L1.15459e-06 -65.8085M192 133.397L5.77289e-07 -59.205M192 140L0 -52.6016" stroke="#F0F0F0"/>
<path d="M192 305.085L1.90507e-05 112.484M192 298.482L1.9628e-05 105.88M192 291.878L2.02053e-05 99.277M192 285.275L2.07826e-05 92.673M192 278.671L2.13599e-05 86.07M192 272.068L2.19372e-05 79.466M192 265.464L2.25145e-05 72.863M192 258.861L2.30918e-05 66.259M192 252.257L2.36691e-05 59.656M192 245.654L2.42464e-05 53.052M192 239.05L2.48237e-05 46.449M192 232.447L2.5401e-05 39.845M192 225.843L2.59783e-05 33.242M192 219.24L2.65556e-05 26.638M192 212.636L2.71329e-05 20.035M192 206.033L2.77102e-05 13.431M192 199.429L2.82875e-05 6.828M192 192.826L2.88648e-05 0.223999M192 186.222L2.9442e-05 -6.379M192 179.619L3.00193e-05 -12.983M192 173.015L3.05966e-05 -19.586M192 166.412L3.11739e-05 -26.19M192 159.809L3.17512e-05 -32.793M192 153.205L3.23285e-05 -39.3965M192 146.602L3.29058e-05 -46M192 311.689L1.84734e-05 119.087M192 318.292L1.78962e-05 125.691M192 324.896L1.73189e-05 132.294M192 331.499L1.67416e-05 138.897M192 338.103L1.61643e-05 145.501M192 344.706L1.5587e-05 152.104M192 351.309L1.50097e-05 158.708M192 357.913L1.44324e-05 165.311M192 364.516L1.38551e-05 171.915M192 371.12L1.32778e-05 178.518M192 377.723L1.27005e-05 185.122M192 384.327L1.21232e-05 191.725M192 390.93L1.15459e-05 198.329M192 397.534L1.09686e-05 204.932M192 404.137L1.03913e-05 211.536M192 410.741L9.81398e-06 218.139M192 417.344L9.23668e-06 224.743M192 423.948L8.65938e-06 231.346M192 430.551L8.08208e-06 237.95M192 437.155L7.50478e-06 244.553M192 443.758L6.92758e-06 251.157M192 450.362L6.35028e-06 257.76M192 456.965L5.77298e-06 264.364M192 463.569L5.19568e-06 270.967M192 470.172L4.61838e-06 277.571M192 476.776L4.04108e-06 284.174M192 483.379L3.46378e-06 290.778M192 489.983L2.88648e-06 297.381M192 496.586L2.30918e-06 303.985M192 503.19L1.73188e-06 310.588M192 509.793L1.15459e-06 317.191M192 516.397L5.77289e-07 323.795M192 523L0 330.398" stroke="#F0F0F0"/>
<path d="M192 688.085L1.90507e-05 495.484M192 681.482L1.9628e-05 488.88M192 674.878L2.02053e-05 482.277M192 668.275L2.07826e-05 475.673M192 661.671L2.13599e-05 469.07M192 655.068L2.19372e-05 462.466M192 648.464L2.25145e-05 455.863M192 641.861L2.30918e-05 449.259M192 635.257L2.36691e-05 442.656M192 628.654L2.42464e-05 436.052M192 622.05L2.48237e-05 429.449M192 615.447L2.5401e-05 422.845M192 608.843L2.59783e-05 416.242M192 602.24L2.65556e-05 409.638M192 595.636L2.71329e-05 403.035M192 589.033L2.77102e-05 396.431M192 582.429L2.82875e-05 389.828M192 575.826L2.88648e-05 383.224M192 569.222L2.9442e-05 376.621M192 562.619L3.00193e-05 370.017M192 556.015L3.05966e-05 363.414M192 549.412L3.11739e-05 356.81M192 542.809L3.17512e-05 350.207M192 536.205L3.23285e-05 343.603M192 529.602L3.29058e-05 337M192 694.689L1.84734e-05 502.087M192 701.292L1.78962e-05 508.691M192 707.896L1.73189e-05 515.294M192 714.499L1.67416e-05 521.897M192 721.103L1.61643e-05 528.501M192 727.706L1.5587e-05 535.104M192 734.309L1.50097e-05 541.708M192 740.913L1.44324e-05 548.311M192 747.516L1.38551e-05 554.915M192 754.12L1.32778e-05 561.518M192 760.723L1.27005e-05 568.122M192 767.327L1.21232e-05 574.725M192 773.93L1.15459e-05 581.329M192 780.534L1.09686e-05 587.932M192 787.137L1.03913e-05 594.536M192 793.741L9.81398e-06 601.139M192 800.344L9.23668e-06 607.743M192 806.948L8.65938e-06 614.346M192 813.551L8.08208e-06 620.95M192 820.155L7.50478e-06 627.553M192 826.758L6.92758e-06 634.157M192 833.362L6.35028e-06 640.76M192 839.965L5.77298e-06 647.364M192 846.569L5.19568e-06 653.967M192 853.172L4.61838e-06 660.571M192 859.776L4.04108e-06 667.174M192 866.38L3.46378e-06 673.778M192 872.98L2.88648e-06 680.381M192 879.59L2.30918e-06 686.985M192 886.19L1.73188e-06 693.588M192 892.79L1.15459e-06 700.191M192 899.4L5.77289e-07 706.795M192 906L0 713.398" stroke="#F0F0F0"/>
</g>
<path d="M176 -134.5H16C7.43959 -134.5 0.5 -127.56 0.5 -119V538C0.5 546.56 7.43959 553.5 16 553.5H176C184.56 553.5 191.5 546.56 191.5 538V-119C191.5 -127.56 184.56 -134.5 176 -134.5Z" stroke="#F0F0F0"/>
</g>
<defs>
<clipPath id="clip0_7_1142">
<rect width="104" height="554" fill="white"/>
</clipPath>
</defs>
</svg>
