<svg width="37" height="37" viewBox="0 0 37 37" fill="none" xmlns="http://www.w3.org/2000/svg">
<g clip-path="url(#clip0_8_1230)">
<path d="M18.5001 2.05566C15.2477 2.05566 12.0683 3.02011 9.36407 4.82705C6.6598 6.63399 4.55207 9.20226 3.30743 12.2071C2.06279 15.2119 1.73713 18.5184 2.37165 21.7083C3.00616 24.8982 4.57234 27.8283 6.87214 30.1281C9.17193 32.4279 12.1021 33.9941 15.292 34.6286C18.4819 35.2631 21.7883 34.9374 24.7931 33.6928C27.798 32.4482 30.3662 30.3404 32.1732 27.6362C33.9801 24.9319 34.9446 21.7525 34.9446 18.5001C34.9446 14.1388 33.212 9.95606 30.1281 6.87213C27.0442 3.7882 22.8615 2.05566 18.5001 2.05566ZM26.7223 18.0582C26.4477 18.3268 26.0788 18.4773 25.6946 18.4773C25.3104 18.4773 24.9414 18.3268 24.6668 18.0582L19.939 13.3612V27.894C19.939 28.2756 19.7874 28.6416 19.5176 28.9114C19.2477 29.1813 18.8817 29.3329 18.5001 29.3329C18.1185 29.3329 17.7525 29.1813 17.4827 28.9114C17.2128 28.6416 17.0612 28.2756 17.0612 27.894V13.5051L12.5082 18.0582C12.2356 18.3307 11.8659 18.4839 11.4804 18.4839C11.0949 18.4839 10.7252 18.3307 10.4526 18.0582C10.18 17.7856 10.0269 17.4159 10.0269 17.0304C10.0269 16.6449 10.18 16.2752 10.4526 16.0026L18.5823 7.914L26.7223 16.0232C26.856 16.1568 26.962 16.3154 27.0343 16.49C27.1066 16.6646 27.1438 16.8517 27.1438 17.0407C27.1438 17.2296 27.1066 17.4168 27.0343 17.5913C26.962 17.7659 26.856 17.9245 26.7223 18.0582Z" fill="#18181B"/>
</g>
<defs>
<clipPath id="clip0_8_1230">
<rect width="37" height="37" fill="white"/>
</clipPath>
</defs>
</svg>
