<svg width="38" height="29" viewBox="0 0 38 29" fill="none" xmlns="http://www.w3.org/2000/svg">
<path d="M31.5095 2.41157C29.07 1.27018 26.4893 0.459178 23.8355 0C23.505 0.597625 23.1187 1.40143 22.8524 2.0409C19.9911 1.61062 17.1562 1.61062 14.3475 2.0409C14.0813 1.40158 13.6864 0.597625 13.3528 0C10.6963 0.459377 8.11341 1.27245 5.67285 2.41752C0.816293 9.75655 -0.500283 16.9131 0.157932 23.9683C3.37912 26.3738 6.50077 27.8351 9.56983 28.7913C10.3326 27.7424 11.0069 26.632 11.5856 25.4713C10.4837 25.0518 9.42137 24.5348 8.41134 23.9265C8.67712 23.7295 8.93666 23.5241 9.18958 23.3108C15.31 26.1736 21.9601 26.1736 28.0076 23.3108C28.2616 23.5227 28.521 23.728 28.7856 23.9265C27.774 24.5365 26.7097 25.0545 25.6056 25.4744C26.1877 26.6397 26.8607 27.7513 27.6213 28.7942C30.6933 27.8381 33.8179 26.3768 37.0391 23.9683C37.8115 15.7896 35.7197 8.69876 31.5095 2.41157ZM12.4195 19.6295C10.5821 19.6295 9.07537 17.9142 9.07537 15.8255C9.07537 13.7368 10.55 12.0186 12.4195 12.0186C14.2889 12.0186 15.7957 13.7337 15.7636 15.8255C15.7665 17.9142 14.2891 19.6295 12.4195 19.6295ZM24.7775 19.6295C22.9402 19.6295 21.4335 17.9142 21.4335 15.8255C21.4335 13.7368 22.9081 12.0186 24.7775 12.0186C26.6471 12.0186 28.1537 13.7337 28.1216 15.8255C28.1216 17.9142 26.6471 19.6295 24.7775 19.6295Z" fill="#5865F2"/>
</svg>
